<svg xmlns="http://www.w3.org/2000/svg" xmlns:xlink="http://www.w3.org/1999/xlink" version="1.1" x="0px" y="0px" viewBox="0 0 68 68" enable-background="new 0 0 78 78" xml:space="preserve" fill="#a400ff"><rect width="100%" height="100%" fill="#56ff00" /><title>Zoom Glass</title><desc>Created with Sketch.</desc><g><path d="M36,18h6v-6c-6,0-12,0-18,0v6C28,18,32,18,36,18L36,18z"/><polygon points="48,24 48,18 42,18 42,24 48,24  "/><polygon points="48,48 48,54 54,54 54,48 48,48  "/><polygon points="42,42 42,48 48,48 48,42 42,42  "/><path d="M48,36v6h6c0-6,0-12,0-18h-6C48,28,48,32,48,36L48,36z"/><polygon points="24,18 18,18 18,24 24,24 24,18  "/><polygon points="54,54 54,60 60,60 60,54 54,54  "/><polygon points="60,60 60,66 66,66 66,60 60,60  "/><path d="M30,48h-6v6c6,0,12,0,18,0v-6C38,48,34,48,30,48L30,48z"/><path d="M18,30v-6h-6c0,6,0,12,0,18h6C18,38,18,34,18,30L18,30z"/><polygon points="18,42 18,48 24,48 24,42 18,42  "/></g></svg>